# Blender 4.1.1
# www.blender.org
mtllib wall_1.mtl
o wall_1
v 1.000353 0.000000 -0.010000
v -1.000353 0.000000 -0.010000
v 1.000353 1.000000 -0.010000
v -1.000353 1.000000 -0.010000
v -1.000353 -0.000000 0.010000
v 1.000353 -0.000000 0.010000
v -1.000353 1.000000 0.010000
v 1.000353 1.000000 0.010000
vn -0.0000 -0.0000 -1.0000
vn -0.0000 -0.0000 1.0000
vt 0.000000 0.000000
vt 1.000000 0.000000
vt 1.000000 1.000000
vt 0.000000 1.000000
s 0
usemtl cardboard_wall
f 1/1/1 2/2/1 4/3/1 3/4/1
usemtl wall_1
f 5/1/2 6/2/2 8/3/2 7/4/2
