# Blender 4.1.1
# www.blender.org
mtllib arena3.mtl
o wall100
v -1.000353 0.000000 -0.000000
v 1.000353 0.000000 -0.000000
v -1.000353 1.000000 0.000000
v 1.000353 1.000000 0.000000
vn -0.0000 -0.0000 1.0000
vt 0.000000 0.000000
vt 1.000000 0.000000
vt 1.000000 1.000000
vt 0.000000 1.000000
s 0
usemtl wall100
f 1/1/1 2/2/1 4/3/1 3/4/1
o plainWall.001
v 5.000353 0.000000 -0.010000
v 2.999647 0.000000 -0.010000
v 5.000353 1.000000 -0.010000
v 2.999647 1.000000 -0.010000
vn -0.0000 -0.0000 -1.0000
vt 0.000000 0.000000
vt 1.000000 0.000000
vt 1.000000 1.000000
vt 0.000000 1.000000
s 0
usemtl plainWall.001
f 5/5/2 6/6/2 8/7/2 7/8/2
o plainWall.002
v 1.000353 0.000000 -0.010000
v -1.000353 0.000000 -0.010000
v 1.000353 1.000000 -0.010000
v -1.000353 1.000000 -0.010000
vn -0.0000 -0.0000 -1.0000
vt 0.000000 0.000000
vt 1.000000 0.000000
vt 1.000000 1.000000
vt 0.000000 1.000000
s 0
usemtl plainWall.002
f 9/9/3 10/10/3 12/11/3 11/12/3
o wall102
v 2.999647 0.000000 -0.000000
v 5.000353 0.000000 -0.000000
v 2.999647 1.000000 0.000000
v 5.000353 1.000000 0.000000
vn -0.0000 -0.0000 1.0000
vt 0.000000 0.000000
vt 1.000000 0.000000
vt 1.000000 1.000000
vt 0.000000 1.000000
s 0
usemtl wall102
f 13/13/4 14/14/4 16/15/4 15/16/4
o wall101
v 0.999647 0.000000 -0.000000
v 3.000353 0.000000 -0.000000
v 0.999647 1.000000 0.000000
v 3.000353 1.000000 0.000000
vn -0.0000 -0.0000 1.0000
vt 0.000000 0.000000
vt 1.000000 0.000000
vt 1.000000 1.000000
vt 0.000000 1.000000
s 0
usemtl wall101
f 17/17/5 18/18/5 20/19/5 19/20/5
o plainWall.003
v 3.000353 0.000000 -0.010000
v 0.999647 0.000000 -0.010000
v 3.000353 1.000000 -0.010000
v 0.999647 1.000000 -0.010000
vn -0.0000 -0.0000 -1.0000
vt 0.000000 0.000000
vt 1.000000 0.000000
vt 1.000000 1.000000
vt 0.000000 1.000000
s 0
usemtl plainWall.003
f 21/21/6 22/22/6 24/23/6 23/24/6
o wall105
v 5.000000 0.000000 3.999647
v 5.000000 0.000000 6.000353
v 5.000000 1.000000 3.999647
v 5.000000 1.000000 6.000353
vn -1.0000 -0.0000 -0.0000
vt 0.000000 0.000000
vt 1.000000 0.000000
vt 1.000000 1.000000
vt 0.000000 1.000000
s 0
usemtl wall105
f 25/25/7 26/26/7 28/27/7 27/28/7
o wall104
v 5.000000 0.000000 1.999647
v 5.000000 0.000000 4.000353
v 5.000000 1.000000 1.999647
v 5.000000 1.000000 4.000353
vn -1.0000 -0.0000 -0.0000
vt 0.000000 0.000000
vt 1.000000 0.000000
vt 1.000000 1.000000
vt 0.000000 1.000000
s 0
usemtl wall104
f 29/29/8 30/30/8 32/31/8 31/32/8
o wall103
v 5.000000 0.000000 -0.000353
v 5.000000 0.000000 2.000353
v 5.000000 1.000000 -0.000353
v 5.000000 1.000000 2.000353
vn -1.0000 -0.0000 -0.0000
vt 0.000000 0.000000
vt 1.000000 0.000000
vt 1.000000 1.000000
vt 0.000000 1.000000
s 0
usemtl wall103
f 33/33/9 34/34/9 36/35/9 35/36/9
