# Blender 4.1.1
# www.blender.org
mtllib test_arena_1.mtl
o test_arena_1
v -1.000353 -0.000000 0.510000
v 1.000353 -0.000000 0.510000
v -1.000353 1.000000 0.510000
v 1.000353 1.000000 0.510000
v 1.000353 0.000000 0.490000
v -1.000353 0.000000 0.490000
v 1.000353 1.000000 0.490000
v -1.000353 1.000000 0.490000
v 2.999647 -0.000000 0.510000
v 5.000353 -0.000000 0.510000
v 2.999647 1.000000 0.510000
v 5.000353 1.000000 0.510000
v 5.000353 0.000000 0.490000
v 2.999647 0.000000 0.490000
v 5.000353 1.000000 0.490000
v 2.999647 1.000000 0.490000
v 0.999647 -0.000000 0.510000
v 3.000353 -0.000000 0.510000
v 0.999647 1.000000 0.510000
v 3.000353 1.000000 0.510000
v 3.000353 0.000000 0.490000
v 0.999647 0.000000 0.490000
v 3.000353 1.000000 0.490000
v 0.999647 1.000000 0.490000
v 5.000353 -0.000000 -0.510000
v 2.999647 -0.000000 -0.510000
v 5.000353 1.000000 -0.510000
v 2.999647 1.000000 -0.510000
v 2.999647 0.000000 -0.490000
v 5.000353 0.000000 -0.490000
v 2.999647 1.000000 -0.490000
v 5.000353 1.000000 -0.490000
v 1.000353 -0.000000 -0.510000
v -1.000353 -0.000000 -0.510000
v 1.000353 1.000000 -0.510000
v -1.000353 1.000000 -0.510000
v -1.000353 0.000000 -0.490000
v 1.000353 0.000000 -0.490000
v -1.000353 1.000000 -0.490000
v 1.000353 1.000000 -0.490000
v 3.000353 -0.000000 -0.510000
v 0.999647 -0.000000 -0.510000
v 3.000353 1.000000 -0.510000
v 0.999647 1.000000 -0.510000
v 0.999647 0.000000 -0.490000
v 3.000353 0.000000 -0.490000
v 0.999647 1.000000 -0.490000
v 3.000353 1.000000 -0.490000
vn -0.0000 -0.0000 1.0000
vn -0.0000 -0.0000 -1.0000
vt 0.000000 0.000000
vt 1.000000 0.000000
vt 1.000000 1.000000
vt 0.000000 1.000000
s 0
usemtl cardboard_wall.003
f 1/1/1 2/2/1 4/3/1 3/4/1
usemtl wall_1.009
f 5/1/2 6/2/2 8/3/2 7/4/2
usemtl cardboard_wall.004
f 9/1/1 10/2/1 12/3/1 11/4/1
usemtl wall_1.010
f 13/1/2 14/2/2 16/3/2 15/4/2
usemtl cardboard_wall.005
f 17/1/1 18/2/1 20/3/1 19/4/1
usemtl wall_1.011
f 21/1/2 22/2/2 24/3/2 23/4/2
usemtl cardboard_wall.002
f 25/1/2 26/2/2 28/3/2 27/4/2
usemtl wall_1.008
f 29/1/1 30/2/1 32/3/1 31/4/1
usemtl cardboard_wall
f 33/1/2 34/2/2 36/3/2 35/4/2
usemtl wall_1.003
f 37/1/1 38/2/1 40/3/1 39/4/1
usemtl cardboard_wall.001
f 41/1/2 42/2/2 44/3/2 43/4/2
usemtl wall_1.007
f 45/1/1 46/2/1 48/3/1 47/4/1
